<svg width="179" height="33" viewBox="0 0 179 33" fill="none" xmlns="http://www.w3.org/2000/svg">
<g id="factboard">
<path d="M14.0787 0.785609V4.60126C13.3979 4.30547 12.6875 4.15758 11.9475 4.15758C9.78671 4.15758 8.70632 5.44425 8.70632 8.0176V9.70358H13.4571V13.0756H8.70632V32.1982H4.35516V13.0756H0.758789V9.70358H4.35516V7.97323C4.35516 5.63651 4.97675 3.80263 6.21994 2.47159C7.49273 1.11097 9.26872 0.430664 11.5479 0.430664C12.3767 0.430664 13.2203 0.548979 14.0787 0.785609Z" fill="white"/>
<path d="M29.1739 22.171H25.7995C24.1419 22.171 22.8839 22.4964 22.0255 23.1471C21.1967 23.7978 20.7823 24.626 20.7823 25.6317C20.7823 26.667 21.1079 27.4804 21.7591 28.0719C22.4103 28.6635 23.3575 28.9593 24.6007 28.9593C26.0215 28.9593 27.1315 28.5748 27.9307 27.8057C28.7595 27.0071 29.1739 25.9719 29.1739 24.7V22.171ZM17.8519 15.0721V10.8572C19.5983 9.85148 21.9071 9.34864 24.7783 9.34864C30.6686 9.34864 33.6138 12.203 33.6138 17.9117V32.1982H29.3071V29.5361C28.1527 31.4291 26.1251 32.3756 23.2243 32.3756C21.0931 32.3756 19.3763 31.7693 18.0739 30.5566C16.8012 29.3143 16.1648 27.7466 16.1648 25.8535C16.1648 23.6943 16.9788 22.0231 18.6067 20.84C20.2347 19.6272 22.5139 19.0209 25.4443 19.0209H29.1739V17.7342C29.1739 16.1961 28.8039 15.0425 28.0639 14.2735C27.3239 13.4749 26.0955 13.0756 24.3787 13.0756C21.9811 13.0756 19.8055 13.7411 17.8519 15.0721Z" fill="white"/>
<path d="M42.2728 21.0618C42.332 23.3394 43.0276 25.2176 44.3596 26.6965C45.6915 28.1459 47.5563 28.8706 49.9539 28.8706C51.7299 28.8706 53.3875 28.3825 54.9267 27.4064V31.3108C53.4763 32.1982 51.6263 32.6419 49.3767 32.6419C45.8543 32.6419 43.0424 31.5327 40.9408 29.3143C38.8392 27.0959 37.7884 24.3302 37.7884 21.0174C37.7884 17.7934 38.8392 15.0425 40.9408 12.765C43.072 10.4578 45.9431 9.30427 49.5543 9.30427C51.5079 9.30427 53.2987 9.71837 54.9267 10.5466V14.5397C53.4763 13.6228 51.8335 13.1643 49.9983 13.1643C47.6599 13.1643 45.7803 13.9038 44.3596 15.3827C42.9684 16.8616 42.2728 18.7547 42.2728 21.0618Z" fill="white"/>
<path d="M65.5694 13.0756V25.4542C65.5694 27.6135 66.6054 28.6931 68.6774 28.6931C69.891 28.6931 70.9122 28.3677 71.7409 27.717V31.6214C70.7642 32.1538 69.5654 32.42 68.1446 32.42C63.4974 32.42 61.1738 30.0685 61.1738 25.3655V13.0756H57.6663V9.70358H61.1738V4.20195H65.5694V9.70358H71.4745V13.0756H65.5694Z" fill="white"/>
<path d="M81.8207 27.8945C83.2119 29.2847 84.8695 29.9798 86.7935 29.9798C88.7174 29.9798 90.301 29.1664 91.5442 27.5395C92.817 25.9127 93.4534 23.8126 93.4534 21.2393C93.4534 18.2518 92.8022 15.9595 91.4998 14.3622C90.1974 12.7354 88.5398 11.922 86.5271 11.922C85.8167 11.922 85.0915 12.0699 84.3515 12.3657C83.6411 12.6319 82.9159 13.0903 82.1759 13.7411C81.4655 14.3622 80.8735 15.294 80.3999 16.5363C79.9559 17.749 79.7339 19.1836 79.7339 20.84C79.7339 24.1232 80.4295 26.4747 81.8207 27.8945ZM79.7339 0.829976V13.0756C81.3915 10.5909 83.6855 9.34864 86.6159 9.34864C89.4574 9.34864 91.781 10.4578 93.5866 12.6762C95.3922 14.8651 96.295 17.7046 96.295 21.1949C96.295 24.3598 95.4514 27.0515 93.7642 29.2699C92.077 31.4587 89.7238 32.5531 86.7046 32.5531C83.6263 32.5531 81.3027 31.3404 79.7339 28.9149V32.1982H77.0255V0.829976H79.7339Z" fill="white"/>
<path d="M110.174 32.5975C107.007 32.5975 104.491 31.5031 102.626 29.3143C100.761 27.1254 99.8289 24.3746 99.8289 21.0618C99.8289 17.7786 100.791 15.013 102.715 12.765C104.639 10.517 107.125 9.39301 110.174 9.39301C113.519 9.39301 116.109 10.5022 117.944 12.7206C119.809 14.9094 120.741 17.6898 120.741 21.0618C120.741 24.4042 119.794 27.1698 117.9 29.3586C116.035 31.5179 113.46 32.5975 110.174 32.5975ZM110.174 11.9664C107.836 11.9664 106 12.8537 104.668 14.6284C103.336 16.4032 102.67 18.5476 102.67 21.0618C102.67 23.5168 103.351 25.6317 104.713 27.4064C106.104 29.1516 107.924 30.0241 110.174 30.0241C112.631 30.0241 114.525 29.1664 115.857 27.4508C117.219 25.7057 117.9 23.576 117.9 21.0618C117.9 18.4589 117.263 16.2996 115.99 14.5841C114.718 12.8389 112.779 11.9664 110.174 11.9664Z" fill="white"/>
<path d="M138.037 21.5055H133.641C131.54 21.5055 129.971 21.9196 128.935 22.7478C127.899 23.5464 127.381 24.5521 127.381 25.7648C127.381 27.0071 127.781 28.0128 128.58 28.7818C129.409 29.5509 130.607 29.9354 132.176 29.9354C133.952 29.9354 135.373 29.4474 136.438 28.4713C137.504 27.4952 138.037 26.2529 138.037 24.7443V21.5055ZM126.138 13.8298V10.9015C127.855 9.86626 129.971 9.34864 132.487 9.34864C137.992 9.34864 140.745 12.2326 140.745 18.0004V32.1982H138.037V29.5805C136.794 31.4735 134.633 32.42 131.555 32.42C129.483 32.42 127.781 31.8137 126.449 30.6009C125.146 29.3586 124.495 27.7762 124.495 25.8535C124.495 23.6943 125.324 22.0231 126.981 20.84C128.669 19.6272 130.889 19.0209 133.641 19.0209H138.037V18.0004C138.037 15.9891 137.608 14.4805 136.749 13.4749C135.891 12.4396 134.455 11.922 132.442 11.922C130.104 11.922 128.003 12.5579 126.138 13.8298Z" fill="white"/>
<path d="M149.063 9.70358V13.5192C150.306 10.798 152.407 9.43737 155.367 9.43737C155.574 9.43737 155.944 9.46695 156.477 9.52611V12.2769C155.885 12.0995 155.293 12.0107 154.701 12.0107C153.103 12.0107 151.756 12.8093 150.661 14.4066C149.595 15.9743 149.063 17.7194 149.063 19.642V32.1982H146.354V9.70358H149.063Z" fill="white"/>
<path d="M163.646 27.5395C164.918 29.1664 166.517 29.9798 168.441 29.9798C170.365 29.9798 172.022 29.2847 173.414 27.8945C174.805 26.4747 175.5 24.1232 175.5 20.84C175.5 19.1836 175.264 17.749 174.79 16.5363C174.346 15.294 173.754 14.3622 173.014 13.7411C172.304 13.0903 171.578 12.6319 170.838 12.3657C170.128 12.0699 169.418 11.922 168.707 11.922C166.694 11.922 165.037 12.7354 163.735 14.3622C162.432 15.9595 161.781 18.2518 161.781 21.2393C161.781 23.8126 162.403 25.9127 163.646 27.5395ZM175.5 0.829976H178.209V32.1982H175.5V28.9149C173.932 31.3404 171.608 32.5531 168.53 32.5531C165.511 32.5531 163.157 31.4587 161.47 29.2699C159.783 27.0515 158.939 24.3598 158.939 21.1949C158.939 17.7046 159.842 14.8651 161.648 12.6762C163.453 10.4578 165.777 9.34864 168.618 9.34864C171.549 9.34864 173.843 10.5909 175.5 13.0756V0.829976Z" fill="white"/>
</g>
</svg>
