<svg width="66" height="66" viewBox="0 0 66 66" fill="none" xmlns="http://www.w3.org/2000/svg">
<g id="Group 524">
<path id="Intersect" d="M56.3022 21.3449L44.6272 33.012L21.2772 9.67871L1.42985 29.5115C-0.459643 31.4373 -0.493515 34.5902 1.42985 36.5116L9.60232 44.6782L21.2772 33.012L44.6272 56.3452L64.4747 36.5116C66.3977 34.5902 66.4089 31.4813 64.5086 29.5454C61.7793 26.8058 59.0376 24.0784 56.3022 21.3449Z" fill="white"/>
<g id="Intersect_2">
<path d="M54.8424 19.8873L44.6269 30.0953L22.7363 8.22024L29.4494 1.51262C31.3838 -0.420875 34.52 -0.420873 36.4544 1.51262L54.8424 19.8873Z" fill="white" fill-opacity="0.6"/>
<path d="M43.1675 57.8039L21.2769 35.9288L11.0613 46.1369C17.2027 52.274 23.3443 58.4108 29.4857 64.5478C31.4118 66.4338 34.497 66.4329 36.4218 64.5446C38.7156 62.3475 40.9207 60.0492 43.1675 57.8039Z" fill="white" fill-opacity="0.6"/>
</g>
</g>
</svg>
