<svg width="173" height="46" viewBox="0 0 173 46" fill="none" xmlns="http://www.w3.org/2000/svg">
<g id="logo factBoard">
<g id="factboard">
<path id="Vector" d="M164.232 31.1839C166.348 31.1839 168.84 29.901 168.84 25.1777C168.84 20.5711 166.087 19.3174 164.406 19.3174C161.913 19.3174 159.884 21.3291 159.884 25.4401C159.884 28.8514 161.739 31.1839 164.232 31.1839ZM168.84 12.0283H170.608V32.6417H168.84V30.4842C167.942 31.8836 166.493 32.875 164.29 32.875C160.174 32.875 158.029 29.3471 158.029 25.411C158.029 20.8335 160.637 17.6263 164.348 17.6263C166.348 17.6263 167.855 18.5885 168.84 20.0754V12.0283Z" fill="white"/>
<path id="Vector_2" d="M151.581 17.8595V20.3669C152.305 18.7633 153.581 17.6846 155.697 17.6846C155.929 17.6846 156.161 17.7137 156.421 17.7429V19.5506C156.045 19.4339 155.697 19.3756 155.262 19.3756C153.059 19.3756 151.581 21.9997 151.581 24.3905V32.6417H149.813V17.8595H151.581Z" fill="white"/>
<path id="Vector_3" d="M144.383 25.6148H141.513C138.586 25.6148 137.427 26.9559 137.427 28.4137C137.427 29.959 138.441 31.1544 140.557 31.1544C142.934 31.1544 144.383 29.6675 144.383 27.7432V25.6148ZM136.615 20.5707V18.6464C137.629 18.0342 139.311 17.626 140.76 17.626C144.644 17.626 146.151 19.7544 146.151 23.3114V32.6414H144.383V30.9212C143.89 31.6792 142.644 32.7872 140.151 32.7872C137.427 32.7872 135.542 30.9795 135.542 28.4721C135.542 25.5856 137.977 23.982 141.513 23.982H144.383V23.3114C144.383 20.804 143.484 19.317 140.731 19.317C139.369 19.317 137.716 19.8127 136.615 20.5707Z" fill="white"/>
<path id="Vector_4" d="M126.193 32.9039C121.961 32.9039 119.44 29.551 119.44 25.3233C119.44 21.0957 122.135 17.6553 126.193 17.6553C130.744 17.6553 133.092 21.0957 133.092 25.3233C133.092 29.551 130.599 32.9039 126.193 32.9039ZM126.193 19.3463C123.005 19.3463 121.295 22.2036 121.295 25.3233C121.295 28.443 123.179 31.2129 126.193 31.2129C129.556 31.2129 131.237 28.443 131.237 25.3233C131.237 22.2036 129.816 19.3463 126.193 19.3463Z" fill="white"/>
<path id="Vector_5" d="M110.93 31.1839C113.423 31.1839 115.278 28.8514 115.278 25.4401C115.278 21.3291 113.249 19.3174 110.756 19.3174C109.075 19.3174 106.321 20.5711 106.321 25.1777C106.321 29.901 108.814 31.1839 110.93 31.1839ZM106.321 12.0283V20.0754C107.307 18.5885 108.814 17.6263 110.814 17.6263C114.524 17.6263 117.133 20.8335 117.133 25.411C117.133 29.3471 114.988 32.875 110.872 32.875C108.669 32.875 107.22 31.8836 106.321 30.4842V32.6417H104.553V12.0283H106.321Z" fill="white"/>
<path id="Vector_6" d="M97.074 20.0754V28.2099C97.074 29.6094 97.7696 30.3383 99.1029 30.3383C99.7986 30.3383 100.581 30.1051 101.103 29.6969V32.2626C100.465 32.6125 99.4218 32.7874 98.7551 32.7874C95.5957 32.7874 94.2044 31.0964 94.2044 28.1516V20.0754H91.9146V17.8595H94.2044V14.2441H97.074V17.8595H100.929V20.0754H97.074Z" fill="white"/>
<path id="Vector_7" d="M81.8653 25.3231C81.9232 28.1804 83.6334 30.4545 86.8797 30.4545C88.0392 30.4545 89.2565 30.0464 90.1261 29.4924V32.0581C89.2276 32.6121 87.7783 32.9328 86.5029 32.9328C81.7783 32.9328 78.9377 29.4924 78.9377 25.2939C78.9377 21.2704 81.6914 17.5967 86.6189 17.5967C87.6044 17.5967 88.9377 17.8008 90.1261 18.4131V21.0371C89.1696 20.4248 87.8653 20.1333 86.9087 20.1333C83.8073 20.1333 81.8653 22.3491 81.8653 25.3231Z" fill="white"/>
<path id="Vector_8" d="M73.3138 26.0521H71.1109C68.821 26.0521 67.8355 27.1017 67.8355 28.3263C67.8355 29.6383 68.6471 30.513 70.3283 30.513C72.2123 30.513 73.3138 29.3467 73.3138 27.714V26.0521ZM65.9225 21.3871V18.6173C66.879 18.0633 68.6471 17.626 70.4442 17.626C74.4442 17.626 76.2123 19.5794 76.2123 23.2531V32.6414H73.4007V30.892C72.908 31.7084 71.7486 32.758 69.4297 32.758C66.5892 32.758 64.821 30.892 64.821 28.4721C64.821 25.6439 67.0529 23.982 70.879 23.982H73.3138V23.1365C73.3138 21.2413 72.5312 20.0751 70.1833 20.0751C68.6471 20.0751 67.0239 20.6291 65.9225 21.3871Z" fill="white"/>
<path id="Vector_9" d="M63.4593 11.9989V14.5063C62.9955 14.3022 62.5318 14.2147 62.068 14.2147C60.9086 14.2147 59.9521 14.8853 59.9521 16.7513V17.8593H63.0535V20.0751H59.9521V32.6414H57.1115V20.0751H54.7637V17.8593H57.1115V16.7222C57.1115 13.6608 58.8216 11.7656 61.8071 11.7656C62.2999 11.7656 62.9376 11.8531 63.4593 11.9989Z" fill="white"/>
</g>
<g id="Mask Group">
<mask id="mask0_659_1341" style="mask-type:alpha" maskUnits="userSpaceOnUse" x="1" y="1" width="44" height="44">
<rect id="mask" width="32.4318" height="32.4318" rx="2.54558" transform="matrix(0.705027 0.70918 -0.705027 0.70918 22.8647 0)" fill="white"/>
</mask>
<g mask="url(#mask0_659_1341)">
<g id="Group 3">
<g id="Group 1">
<path id="Union" fill-rule="evenodd" clip-rule="evenodd" d="M38.1094 15.3333L45.7312 23L30.4877 38.3333L22.8659 30.6667L22.8659 30.6666L15.2443 23.0002L7.62267 30.6667L0.000895849 23L7.62254 15.3335L7.62233 15.3333L15.2441 7.66662L15.2443 7.66682L15.2444 7.66669L22.8662 15.3334L22.8661 15.3335L30.4877 23L38.1094 15.3333Z" fill="white"/>
<rect id="Rectangle 25" opacity="0.6" width="9.45928" height="20.2699" transform="matrix(-0.705027 0.70918 -0.705027 -0.70918 37.1565 14.375)" fill="white"/>
<rect id="Rectangle 26" opacity="0.6" width="9.45928" height="20.2699" transform="matrix(-0.705027 0.70918 -0.705027 -0.70918 29.5347 39.292)" fill="white"/>
</g>
</g>
</g>
</g>
</g>
</svg>
