<svg width="130" height="23" viewBox="0 0 130 23" fill="none" xmlns="http://www.w3.org/2000/svg">
<g id="ui_library-logo-black" clip-path="url(#clip0_653_1220)">
<g id="ui_library">
<path fill-rule="evenodd" clip-rule="evenodd" d="M76.5686 0.272461V8.76229C77.6802 7.0388 79.2551 6.17706 81.2932 6.17706C83.2695 6.17706 84.8856 6.9157 86.1413 8.39298C87.3971 9.87026 88.025 11.8297 88.025 14.2713C88.025 16.4667 87.428 18.3441 86.234 19.9035C85.04 21.4423 83.4033 22.2117 81.3241 22.2117C79.2448 22.2117 77.6597 21.35 76.5686 19.6265V21.9963H73.5115V0.272461H76.5686ZM80.83 19.5649C81.9828 19.5649 82.9504 19.0827 83.7327 18.1184C84.515 17.1336 84.9061 15.8717 84.9061 14.3329C84.9061 12.5683 84.515 11.2142 83.7327 10.2704C82.9504 9.30602 81.952 8.82385 80.7374 8.82385C79.6669 8.82385 78.6993 9.25472 77.8346 10.1165C76.9906 10.9782 76.5686 12.3016 76.5686 14.0867C76.5686 15.9333 76.9803 17.308 77.8038 18.2107C78.6272 19.1135 79.636 19.5649 80.83 19.5649Z" fill="white"/>
<path fill-rule="evenodd" clip-rule="evenodd" d="M97.6605 22.2733C95.3548 22.2733 93.5432 21.5244 92.2257 20.0266C90.9081 18.5288 90.2493 16.6309 90.2493 14.3329C90.2493 11.9938 90.9287 10.0549 92.2874 8.51608C93.6461 6.95673 95.4372 6.17706 97.6605 6.17706C100.049 6.17706 101.891 6.93621 103.188 8.45453C104.485 9.95233 105.133 11.8707 105.133 14.2098C105.133 16.5488 104.464 18.4775 103.126 19.9958C101.809 21.5141 99.9868 22.2733 97.6605 22.2733ZM97.6296 8.73152C96.2915 8.73152 95.2519 9.26498 94.5108 10.3319C93.7697 11.3783 93.3991 12.6812 93.3991 14.2405C93.3991 15.7794 93.7799 17.0823 94.5416 18.1492C95.3034 19.1956 96.343 19.7188 97.6605 19.7188C99.0604 19.7188 100.121 19.2059 100.841 18.18C101.582 17.1541 101.953 15.8512 101.953 14.2713C101.953 12.6504 101.603 11.327 100.903 10.3011C100.203 9.25472 99.1119 8.73152 97.6296 8.73152Z" fill="white"/>
<path d="M106.383 6.39249L111.293 21.9963H114.72L116.141 16.8873C117.108 13.4198 117.736 11.0193 118.024 9.6856L118.148 10.3011C118.251 10.732 118.457 11.5527 118.766 12.7633C119.095 13.9533 119.476 15.328 119.908 16.8873L121.359 21.9963H124.818L129.79 6.39249H126.733L125.189 11.5322C124.036 15.369 123.336 17.8927 123.089 19.1033L122.965 18.4877C122.862 18.0774 122.636 17.2464 122.286 15.9948C121.936 14.7227 121.514 13.2352 121.02 11.5322L119.476 6.39249H116.542L115.029 11.5322C113.938 15.2664 113.259 17.7799 112.991 19.0725L112.867 18.4262C112.785 17.9953 112.579 17.1541 112.25 15.9025C111.92 14.6509 111.519 13.2044 111.046 11.563L109.594 6.39249H106.383Z" fill="white"/>
<path d="M60.0474 9.06987V6.39229H57.0212V21.9961H60.0474V13.5325C60.0474 12.0347 60.4283 10.8754 61.19 10.0547C61.9517 9.21349 62.7607 8.79288 63.8312 8.79288C64.737 8.79288 65.4576 9.08013 65.9928 9.65462C66.5486 10.2291 66.8266 11.0601 66.8266 12.1475V21.9961H69.8528V11.4397C69.8528 9.81876 69.3999 8.5364 68.4941 7.59259C67.5883 6.64877 66.3634 6.17686 64.8194 6.17686C62.4931 6.17686 60.9738 7.14119 60.0474 9.06987Z" fill="white"/>
<path d="M3.02623 8.88523V6.39232H0V21.9961H3.02623V13.5325C3.02623 11.9732 3.3865 10.7934 4.10703 9.99319C4.82756 9.193 5.63044 8.7929 6.51567 8.7929C8.34788 8.7929 9.26398 9.91112 9.26398 12.1476V21.9961H12.2902V13.5325C12.2902 11.9732 12.6402 10.7934 13.3401 9.99319C14.0607 9.193 14.8738 8.7929 15.7796 8.7929C17.5913 8.7929 18.4971 9.91112 18.4971 12.1476V21.9961H21.5233V11.5012C21.5233 9.83931 21.1013 8.53643 20.2572 7.59261C19.4338 6.64879 18.2192 6.17688 16.6134 6.17688C15.5841 6.17688 14.6577 6.44361 13.8342 6.97707C13.0107 7.49002 12.3829 8.22866 11.9505 9.193C11.2918 7.18225 9.78894 6.17688 7.44206 6.17688C5.3834 6.17688 3.91146 7.07967 3.02623 8.88523Z" fill="white"/>
<path d="M31.9106 22.3924C29.6049 22.3924 27.7932 21.6435 26.4757 20.1457C25.1581 18.6479 24.4994 16.75 24.4994 14.452C24.4994 12.113 25.1787 10.1741 26.5374 8.63524C27.8962 7.07589 29.6872 6.29621 31.9106 6.29621C34.2986 6.29621 36.1411 7.05537 37.4381 8.57368C37.6954 8.87087 37.9272 9.18462 38.1335 9.51492L38.6236 10.2657L36.9587 13.1098C36.8083 12.8729 36.6622 12.6338 36.5169 12.3962L36.5166 12.3958C35.4064 10.5794 34.3497 8.85067 31.8797 8.85067C30.5415 8.85067 29.5019 9.38414 28.7608 10.4511C28.0197 11.4975 27.6491 12.8004 27.6491 14.3597C27.6491 15.8985 28.03 17.2014 28.7917 18.2683C29.5534 19.3147 30.593 19.8379 31.9106 19.8379C33.3104 19.8379 34.4733 19.3514 35.1939 18.3255C36.615 16.412 37.5563 14.7251 38.4313 13.1569C39.3437 11.5217 40.1842 10.0155 41.4216 8.51591C42.7803 6.95656 44.5713 6.17688 46.7947 6.17688C49.1827 6.17688 51.0252 6.93604 52.3222 8.45436C53.6192 9.95216 54.2676 11.8706 54.2676 14.2096C54.2676 16.5486 53.5986 18.4773 52.2604 19.9956C50.9429 21.5139 49.121 22.2731 46.7947 22.2731C44.489 22.2731 42.6774 21.5242 41.3598 20.0264C40.9293 19.537 40.5917 18.9893 40.2516 18.4377L40.1824 18.3255L41.7299 15.6977C41.7979 15.8037 41.8657 15.9102 41.9337 16.0168C43.0989 17.8454 44.2926 19.7186 46.7947 19.7186C48.1946 19.7186 49.2548 19.2057 49.9753 18.1798C50.7164 17.1539 51.087 15.851 51.087 14.2712C51.087 12.6502 50.737 11.3268 50.0371 10.301C49.3371 9.25455 48.246 8.73135 46.7638 8.73135C45.4257 8.73135 44.1938 9.26481 43.4527 10.3317C42.3003 11.8125 41.4208 13.4398 40.5423 15.0653C39.5983 16.8121 38.6554 18.5568 37.3763 20.1149C36.0588 21.6333 34.2368 22.3924 31.9106 22.3924Z" fill="white"/>
</g>
</g>
<defs>
<clipPath id="clip0_653_1220">
<rect width="130" height="22.5694" fill="white"/>
</clipPath>
</defs>
</svg>
