<svg width="16" height="17" viewBox="0 0 16 17" fill="none" xmlns="http://www.w3.org/2000/svg">
<g id="more_vert">
<mask id="mask0_659_1391" style="mask-type:alpha" maskUnits="userSpaceOnUse" x="0" y="0" width="16" height="17">
<rect id="Bounding box" y="0.5" width="16" height="16" fill="#5F6368"/>
</mask>
<g mask="url(#mask0_659_1391)">
<path id="more_vert_2" d="M8.00008 13.8332C7.63341 13.8332 7.31953 13.7026 7.05841 13.4415C6.7973 13.1804 6.66675 12.8665 6.66675 12.4998C6.66675 12.1332 6.7973 11.8193 7.05841 11.5582C7.31953 11.2971 7.63341 11.1665 8.00008 11.1665C8.36675 11.1665 8.68064 11.2971 8.94175 11.5582C9.20286 11.8193 9.33341 12.1332 9.33341 12.4998C9.33341 12.8665 9.20286 13.1804 8.94175 13.4415C8.68064 13.7026 8.36675 13.8332 8.00008 13.8332ZM8.00008 9.83317C7.63341 9.83317 7.31953 9.70262 7.05841 9.4415C6.7973 9.18039 6.66675 8.8665 6.66675 8.49984C6.66675 8.13317 6.7973 7.81928 7.05841 7.55817C7.31953 7.29706 7.63341 7.1665 8.00008 7.1665C8.36675 7.1665 8.68064 7.29706 8.94175 7.55817C9.20286 7.81928 9.33341 8.13317 9.33341 8.49984C9.33341 8.8665 9.20286 9.18039 8.94175 9.4415C8.68064 9.70262 8.36675 9.83317 8.00008 9.83317ZM8.00008 5.83317C7.63341 5.83317 7.31953 5.70262 7.05841 5.4415C6.7973 5.18039 6.66675 4.8665 6.66675 4.49984C6.66675 4.13317 6.7973 3.81928 7.05841 3.55817C7.31953 3.29706 7.63341 3.1665 8.00008 3.1665C8.36675 3.1665 8.68064 3.29706 8.94175 3.55817C9.20286 3.81928 9.33341 4.13317 9.33341 4.49984C9.33341 4.8665 9.20286 5.18039 8.94175 5.4415C8.68064 5.70262 8.36675 5.83317 8.00008 5.83317Z" fill="white"/>
</g>
</g>
</svg>
